. 
  
http://www.torrentday.com/        :     The Hottest Private Tracker On The Net!!!
 
http://www.torrentday.com          :     Once & For all ;)


               www . TorrentDay . Com 

(((((((((((((= Enjoy No RAR releases =))))))))))))))))))))


...................................NFO:....................................

.[img]http://img835.imageshack.us/img835/1084/tyurt.jpg[/img]

[color=blue][size=5][b]The Chameleon 2010 R5 XVID AC3-5.1 HQ Hive-CM8[/b][/size][/color]



[b]Thx Hive

CM8 Doing It Right The First Time :D

Source:
Russian R5 DVD-9
Hameleon.2010.DVD-9

Encode: 
added brightness,sharpness,chroma,rgb and denoise 
Russian dvd contained English stereo audio which i entered into the Russian 5.1 channels.
enjoy

Video: 720x400 @bitrate 1800 2pass
Audio: English AC3 5.1 @bitrate 448
Sample: yes included
Subs: yes hardcoded for the foreign parts only[/b]


[url]http://www.imdb.com/title/tt1359553/[/url]


General
Complete name                    : The.Chameleon.2010.R5.XVID.AC3-5.1.HQ.Hive-CM8.avi
Format                           : AVI
Format/Info                      : Audio Video Interleave
File size                        : 1.42 GiB
Duration                         : 1h 30mn
Overall bit rate                 : 2 255 Kbps
Writing application              : Nandub v1.0rc2
Writing library                  : Nandub build 1853/release

Video
ID                               : 0
Format                           : MPEG-4 Visual
Format profile                   : Advanced Simple@L5
Format settings, BVOP            : Yes
Format settings, QPel            : Yes
Format settings, GMC             : No warppoints
Format settings, Matrix          : Default (H.263)
Muxing mode                      : Packed bitstream
Codec ID                         : XVID
Codec ID/Hint                    : XviD
Duration                         : 1h 30mn
Bit rate                         : 1 798 Kbps
Width                            : 720 pixels
Height                           : 400 pixels
Display aspect ratio             : 16:9
Frame rate                       : 25.000 fps
Color space                      : YUV
Chroma subsampling               : 4:2:0
Bit depth                        : 8 bits
Scan type                        : Progressive
Bits/(Pixel*Frame)               : 0.250
Stream size                      : 1.13 GiB (80%)
Writing library                  : XviD 1.2.1 (UTC 2008-12-04)

Audio
ID                               : 1
Format                           : AC-3
Format/Info                      : Audio Coding 3
Mode extension                   : CM (complete main)
Codec ID                         : 2000
Duration                         : 1h 30mn
Bit rate mode                    : Constant
Bit rate                         : 448 Kbps
Channel(s)                       : 6 channels
Channel positions                : Front: L C R, Side: L R, LFE
Sampling rate                    : 48.0 KHz
Bit depth                        : 16 bits
Stream size                      : 289 MiB (20%)
Alignment                        : Split accross interleaves
Interleave, duration             : 40 ms (1.00 video frame)
Interleave, preload duration     : 500 ms





Marc-Andre Grondin ... 	Frederic Fortin / Nicholas Mark Randall
Famke Janssen	... 	Jennifer Johnson
Ellen Barkin	... 	Kimberly Miller
Emilie de Ravin	... 	Kathy Jansen
Tory Kittles	... 	Dan Price
Brian Geraghty	... 	Brian Jansen
Nick Stahl	... 	Brendan Kerrigan




An FBI Agent is hot on the tracks of Frederic Fortin who has taken up the identity 
of a woman's long lost son completely convincing the police and the boy's family of his identity.  



[img]http://img600.imageshack.us/img600/7717/83524856.png[/img]
[img]http://img151.imageshack.us/img151/7078/chch.png[/img]
[img]http://img34.imageshack.us/img34/7823/chchcchhcchhchchch.png[/img]
[img]http://img815.imageshack.us/img815/4129/chchch.png[/img]
[img]http://img695.imageshack.us/img695/6674/chchchch.png[/img]
[img]http://img39.imageshack.us/img39/6138/chchchchch.png[/img]
[img]http://img101.imageshack.us/img101/7492/chchchcchhchch.png[/img]
[img]http://img7.imageshack.us/img7/9341/chchchcchhchchch.png[/img]
[img]http://img7.imageshack.us/img7/4119/chchchchchch.png[/img]





Greetz

iNK,LUSi,,MAGNET,CLASSiFiED,THC,LEGi0N,T0XiC,IMAGiNE,ViSiON,WBZ,FLAWL3SS,NOVA
Vik,Rapeseed,D2U,SAFC,goldadvance,MEMORY100,KaN1vE,Unevano,Pinnz,Wayne,Mr Hive
and all P2P groups 
Great Work Guys :D